<svg xmlns="http://www.w3.org/2000/svg" xmlns:xlink="http://www.w3.org/1999/xlink" width="200" zoomAndPan="magnify" viewBox="0 0 150 74.999997" height="100" preserveAspectRatio="xMidYMid meet" version="1.0"><defs><g/></defs><rect x="-15" width="180" fill="#ffffff" y="-7.5" height="89.999996" fill-opacity="1"/><rect x="-15" width="180" fill="#ffffff" y="-7.5" height="89.999996" fill-opacity="1"/><g fill="#000000" fill-opacity="1"><g transform="translate(6.269874, 51.129415)"><g><path d="M 3.03125 0 L 3.03125 -43.359375 L 11.953125 -43.359375 L 11.953125 0 Z M 3.03125 0 "/></g></g></g><g fill="#000000" fill-opacity="1"><g transform="translate(16.500677, 51.129415)"><g><path d="M 29.1875 -11.703125 L 10.4375 -11.703125 C 10.4375 -9.878906 11.023438 -8.53125 12.203125 -7.65625 C 13.378906 -6.789062 14.65625 -6.359375 16.03125 -6.359375 C 17.476562 -6.359375 18.617188 -6.550781 19.453125 -6.9375 C 20.296875 -7.320312 21.257812 -8.085938 22.34375 -9.234375 L 28.796875 -6 C 26.097656 -1.5 21.625 0.75 15.375 0.75 C 11.476562 0.75 8.132812 -0.582031 5.34375 -3.25 C 2.550781 -5.925781 1.15625 -9.144531 1.15625 -12.90625 C 1.15625 -16.675781 2.550781 -19.90625 5.34375 -22.59375 C 8.132812 -25.28125 11.476562 -26.625 15.375 -26.625 C 19.476562 -26.625 22.816406 -25.4375 25.390625 -23.0625 C 27.960938 -20.695312 29.25 -17.3125 29.25 -12.90625 C 29.25 -12.300781 29.226562 -11.898438 29.1875 -11.703125 Z M 10.6875 -16.640625 L 20.515625 -16.640625 C 20.316406 -17.984375 19.785156 -19.015625 18.921875 -19.734375 C 18.066406 -20.460938 16.96875 -20.828125 15.625 -20.828125 C 14.144531 -20.828125 12.96875 -20.4375 12.09375 -19.65625 C 11.226562 -18.882812 10.757812 -17.878906 10.6875 -16.640625 Z M 10.6875 -16.640625 "/></g></g></g><g fill="#000000" fill-opacity="1"><g transform="translate(42.155372, 51.129415)"><g><path d="M 3.03125 0 L 3.03125 -25.859375 L 11.953125 -25.859375 L 11.953125 -23.140625 L 12.046875 -23.140625 C 14.367188 -25.460938 16.84375 -26.625 19.46875 -26.625 C 21.34375 -26.625 23.101562 -26.234375 24.75 -25.453125 C 26.40625 -24.679688 27.648438 -23.492188 28.484375 -21.890625 C 31.109375 -25.046875 33.96875 -26.625 37.0625 -26.625 C 39.8125 -26.625 42.175781 -25.847656 44.15625 -24.296875 C 46.144531 -22.753906 47.140625 -20.335938 47.140625 -17.046875 L 47.140625 0 L 38.21875 0 L 38.21875 -14.625 C 38.21875 -16 37.835938 -17.148438 37.078125 -18.078125 C 36.328125 -19.003906 35.195312 -19.46875 33.6875 -19.46875 C 32.375 -19.46875 31.367188 -19.070312 30.671875 -18.28125 C 29.984375 -17.488281 29.609375 -16.535156 29.546875 -15.421875 L 29.546875 0 L 20.625 0 L 20.625 -14.625 C 20.625 -16 20.242188 -17.148438 19.484375 -18.078125 C 18.734375 -19.003906 17.597656 -19.46875 16.078125 -19.46875 C 14.703125 -19.46875 13.671875 -19.035156 12.984375 -18.171875 C 12.296875 -17.316406 11.953125 -16.300781 11.953125 -15.125 L 11.953125 0 Z M 3.03125 0 "/></g></g></g><g fill="#000000" fill-opacity="1"><g transform="translate(87.064723, 51.129415)"><g><path d="M 3.875 -40.28125 C 4.925781 -41.320312 6.171875 -41.84375 7.609375 -41.84375 C 9.054688 -41.84375 10.300781 -41.320312 11.34375 -40.28125 C 12.382812 -39.238281 12.90625 -37.992188 12.90625 -36.546875 C 12.90625 -35.109375 12.382812 -33.867188 11.34375 -32.828125 C 10.300781 -31.785156 9.054688 -31.265625 7.609375 -31.265625 C 6.171875 -31.265625 4.925781 -31.785156 3.875 -32.828125 C 2.832031 -33.867188 2.3125 -35.109375 2.3125 -36.546875 C 2.3125 -37.992188 2.832031 -39.238281 3.875 -40.28125 Z M 3.03125 -25.859375 L 3.03125 0 L 11.953125 0 L 11.953125 -25.859375 Z M 3.03125 -25.859375 "/></g></g></g><g fill="#000000" fill-opacity="1"><g transform="translate(97.547559, 51.129415)"><g><path d="M 3.03125 0 L 3.03125 -25.859375 L 11.953125 -25.859375 L 11.953125 -23.140625 L 12.046875 -23.140625 C 14.367188 -25.460938 16.84375 -26.625 19.46875 -26.625 C 20.738281 -26.625 22.003906 -26.453125 23.265625 -26.109375 C 24.523438 -25.773438 25.734375 -25.253906 26.890625 -24.546875 C 28.054688 -23.847656 29 -22.847656 29.71875 -21.546875 C 30.445312 -20.253906 30.8125 -18.753906 30.8125 -17.046875 L 30.8125 0 L 21.890625 0 L 21.890625 -14.625 C 21.890625 -15.96875 21.457031 -17.144531 20.59375 -18.15625 C 19.738281 -19.164062 18.625 -19.671875 17.25 -19.671875 C 15.90625 -19.671875 14.6875 -19.144531 13.59375 -18.09375 C 12.5 -17.050781 11.953125 -15.894531 11.953125 -14.625 L 11.953125 0 Z M 3.03125 0 "/></g></g></g><g fill="#000000" fill-opacity="1"><g transform="translate(126.125742, 51.129415)"><g><path d="M 8.765625 -10.796875 C 10.378906 -10.796875 11.75 -10.226562 12.875 -9.09375 C 14.007812 -7.96875 14.578125 -6.597656 14.578125 -4.984375 C 14.578125 -3.410156 14.007812 -2.0625 12.875 -0.9375 C 11.75 0.1875 10.378906 0.75 8.765625 0.75 C 7.191406 0.75 5.84375 0.1875 4.71875 -0.9375 C 3.59375 -2.0625 3.03125 -3.410156 3.03125 -4.984375 C 3.03125 -6.597656 3.59375 -7.96875 4.71875 -9.09375 C 5.84375 -10.226562 7.191406 -10.796875 8.765625 -10.796875 Z M 8.765625 -10.796875 "/></g></g></g><g fill="#000000" fill-opacity="1"><g transform="translate(24.782547, 64.78998)"><g><path d="M 3.03125 -5.4375 C 3.5625 -5.4375 4.003906 -5.347656 4.359375 -5.171875 C 4.710938 -5.003906 4.890625 -4.789062 4.890625 -4.53125 C 4.890625 -4.414062 4.851562 -4.3125 4.78125 -4.21875 C 4.707031 -4.132812 4.613281 -4.09375 4.5 -4.09375 C 4.414062 -4.09375 4.347656 -4.101562 4.296875 -4.125 C 4.242188 -4.15625 4.175781 -4.203125 4.09375 -4.265625 C 4.050781 -4.296875 3.984375 -4.34375 3.890625 -4.40625 C 3.804688 -4.445312 3.691406 -4.476562 3.546875 -4.5 C 3.398438 -4.53125 3.265625 -4.546875 3.140625 -4.546875 C 2.785156 -4.546875 2.472656 -4.460938 2.203125 -4.296875 C 1.941406 -4.140625 1.734375 -3.914062 1.578125 -3.625 C 1.429688 -3.332031 1.359375 -3.015625 1.359375 -2.671875 C 1.359375 -2.304688 1.429688 -1.984375 1.578125 -1.703125 C 1.722656 -1.421875 1.925781 -1.195312 2.1875 -1.03125 C 2.445312 -0.875 2.75 -0.796875 3.09375 -0.796875 C 3.445312 -0.796875 3.726562 -0.847656 3.9375 -0.953125 C 3.988281 -0.984375 4.054688 -1.023438 4.140625 -1.078125 C 4.203125 -1.140625 4.257812 -1.179688 4.3125 -1.203125 C 4.363281 -1.234375 4.425781 -1.25 4.5 -1.25 C 4.632812 -1.25 4.738281 -1.207031 4.8125 -1.125 C 4.894531 -1.039062 4.9375 -0.929688 4.9375 -0.796875 C 4.9375 -0.648438 4.847656 -0.503906 4.671875 -0.359375 C 4.492188 -0.222656 4.253906 -0.113281 3.953125 -0.03125 C 3.648438 0.0507812 3.328125 0.09375 2.984375 0.09375 C 2.460938 0.09375 2.003906 -0.0234375 1.609375 -0.265625 C 1.222656 -0.503906 0.921875 -0.832031 0.703125 -1.25 C 0.492188 -1.675781 0.390625 -2.148438 0.390625 -2.671875 C 0.390625 -3.191406 0.5 -3.660156 0.71875 -4.078125 C 0.945312 -4.503906 1.257812 -4.835938 1.65625 -5.078125 C 2.0625 -5.316406 2.519531 -5.4375 3.03125 -5.4375 Z M 3.03125 -5.4375 "/></g></g></g><g fill="#000000" fill-opacity="1"><g transform="translate(36.610944, 64.78998)"><g><path d="M 5.75 -2.65625 C 5.75 -2.125 5.628906 -1.648438 5.390625 -1.234375 C 5.160156 -0.816406 4.835938 -0.488281 4.421875 -0.25 C 4.015625 -0.0195312 3.566406 0.09375 3.078125 0.09375 C 2.578125 0.09375 2.125 -0.0195312 1.71875 -0.25 C 1.3125 -0.488281 0.988281 -0.816406 0.75 -1.234375 C 0.507812 -1.648438 0.390625 -2.125 0.390625 -2.65625 C 0.390625 -3.1875 0.507812 -3.660156 0.75 -4.078125 C 0.988281 -4.503906 1.3125 -4.835938 1.71875 -5.078125 C 2.125 -5.316406 2.578125 -5.4375 3.078125 -5.4375 C 3.566406 -5.4375 4.015625 -5.316406 4.421875 -5.078125 C 4.835938 -4.835938 5.160156 -4.503906 5.390625 -4.078125 C 5.628906 -3.660156 5.75 -3.1875 5.75 -2.65625 Z M 4.78125 -2.65625 C 4.78125 -3.019531 4.703125 -3.34375 4.546875 -3.625 C 4.398438 -3.914062 4.195312 -4.140625 3.9375 -4.296875 C 3.675781 -4.460938 3.390625 -4.546875 3.078125 -4.546875 C 2.753906 -4.546875 2.460938 -4.460938 2.203125 -4.296875 C 1.941406 -4.140625 1.734375 -3.914062 1.578125 -3.625 C 1.429688 -3.34375 1.359375 -3.019531 1.359375 -2.65625 C 1.359375 -2.300781 1.429688 -1.976562 1.578125 -1.6875 C 1.734375 -1.40625 1.941406 -1.1875 2.203125 -1.03125 C 2.460938 -0.875 2.753906 -0.796875 3.078125 -0.796875 C 3.390625 -0.796875 3.675781 -0.875 3.9375 -1.03125 C 4.195312 -1.1875 4.398438 -1.40625 4.546875 -1.6875 C 4.703125 -1.976562 4.78125 -2.300781 4.78125 -2.65625 Z M 4.78125 -2.65625 "/></g></g></g><g fill="#000000" fill-opacity="1"><g transform="translate(49.372312, 64.78998)"><g><path d="M 0.421875 -0.828125 C 0.359375 -0.921875 0.328125 -1.015625 0.328125 -1.109375 C 0.328125 -1.242188 0.394531 -1.359375 0.53125 -1.453125 C 0.601562 -1.492188 0.679688 -1.515625 0.765625 -1.515625 C 0.890625 -1.515625 1.003906 -1.46875 1.109375 -1.375 C 1.304688 -1.144531 1.519531 -0.96875 1.75 -0.84375 C 1.988281 -0.726562 2.269531 -0.671875 2.59375 -0.671875 C 2.851562 -0.679688 3.078125 -0.742188 3.265625 -0.859375 C 3.460938 -0.972656 3.5625 -1.15625 3.5625 -1.40625 C 3.5625 -1.632812 3.460938 -1.804688 3.265625 -1.921875 C 3.066406 -2.046875 2.773438 -2.160156 2.390625 -2.265625 C 2.015625 -2.359375 1.703125 -2.460938 1.453125 -2.578125 C 1.203125 -2.691406 0.988281 -2.851562 0.8125 -3.0625 C 0.644531 -3.28125 0.5625 -3.5625 0.5625 -3.90625 C 0.5625 -4.207031 0.644531 -4.472656 0.8125 -4.703125 C 0.988281 -4.929688 1.21875 -5.109375 1.5 -5.234375 C 1.789062 -5.367188 2.101562 -5.4375 2.4375 -5.4375 C 2.769531 -5.4375 3.09375 -5.375 3.40625 -5.25 C 3.726562 -5.132812 3.992188 -4.945312 4.203125 -4.6875 C 4.273438 -4.59375 4.3125 -4.5 4.3125 -4.40625 C 4.3125 -4.289062 4.257812 -4.1875 4.15625 -4.09375 C 4.09375 -4.03125 4.007812 -4 3.90625 -4 C 3.78125 -4 3.679688 -4.035156 3.609375 -4.109375 C 3.460938 -4.273438 3.285156 -4.398438 3.078125 -4.484375 C 2.878906 -4.578125 2.65625 -4.625 2.40625 -4.625 C 2.144531 -4.625 1.925781 -4.570312 1.75 -4.46875 C 1.570312 -4.363281 1.484375 -4.1875 1.484375 -3.9375 C 1.484375 -3.695312 1.582031 -3.519531 1.78125 -3.40625 C 1.988281 -3.289062 2.296875 -3.179688 2.703125 -3.078125 C 3.066406 -2.984375 3.363281 -2.878906 3.59375 -2.765625 C 3.832031 -2.660156 4.03125 -2.5 4.1875 -2.28125 C 4.351562 -2.070312 4.4375 -1.796875 4.4375 -1.453125 C 4.4375 -1.128906 4.34375 -0.851562 4.15625 -0.625 C 3.976562 -0.394531 3.742188 -0.21875 3.453125 -0.09375 C 3.160156 0.03125 2.847656 0.09375 2.515625 0.09375 C 2.085938 0.09375 1.691406 0.0195312 1.328125 -0.125 C 0.972656 -0.269531 0.671875 -0.503906 0.421875 -0.828125 Z M 0.421875 -0.828125 "/></g></g></g><g fill="#000000" fill-opacity="1"><g transform="translate(60.8255, 64.78998)"><g><path d="M 6.8125 -5.40625 C 8 -5.40625 8.59375 -4.664062 8.59375 -3.1875 L 8.59375 -0.484375 C 8.59375 -0.347656 8.546875 -0.234375 8.453125 -0.140625 C 8.367188 -0.046875 8.253906 0 8.109375 0 C 7.972656 0 7.859375 -0.046875 7.765625 -0.140625 C 7.671875 -0.234375 7.625 -0.347656 7.625 -0.484375 L 7.625 -3.1875 C 7.625 -4.070312 7.253906 -4.515625 6.515625 -4.515625 C 6.242188 -4.515625 6 -4.453125 5.78125 -4.328125 C 5.570312 -4.210938 5.410156 -4.050781 5.296875 -3.84375 C 5.179688 -3.644531 5.125 -3.425781 5.125 -3.1875 L 5.125 -0.484375 C 5.125 -0.347656 5.078125 -0.234375 4.984375 -0.140625 C 4.890625 -0.046875 4.773438 0 4.640625 0 C 4.492188 0 4.375 -0.046875 4.28125 -0.140625 C 4.195312 -0.234375 4.15625 -0.347656 4.15625 -0.484375 L 4.15625 -3.1875 C 4.15625 -3.59375 4.070312 -3.914062 3.90625 -4.15625 C 3.738281 -4.394531 3.457031 -4.515625 3.0625 -4.515625 C 2.664062 -4.515625 2.335938 -4.382812 2.078125 -4.125 C 1.816406 -3.875 1.6875 -3.5625 1.6875 -3.1875 L 1.6875 -0.484375 C 1.6875 -0.347656 1.640625 -0.234375 1.546875 -0.140625 C 1.453125 -0.046875 1.335938 0 1.203125 0 C 1.054688 0 0.9375 -0.046875 0.84375 -0.140625 C 0.757812 -0.234375 0.71875 -0.347656 0.71875 -0.484375 L 0.71875 -4.828125 C 0.71875 -4.960938 0.765625 -5.078125 0.859375 -5.171875 C 0.953125 -5.265625 1.066406 -5.3125 1.203125 -5.3125 C 1.335938 -5.3125 1.453125 -5.265625 1.546875 -5.171875 C 1.640625 -5.078125 1.6875 -4.960938 1.6875 -4.828125 L 1.6875 -4.46875 C 1.863281 -4.738281 2.097656 -4.960938 2.390625 -5.140625 C 2.679688 -5.316406 3 -5.40625 3.34375 -5.40625 C 4.1875 -5.40625 4.734375 -5.035156 4.984375 -4.296875 C 5.128906 -4.578125 5.375 -4.832031 5.71875 -5.0625 C 6.0625 -5.289062 6.425781 -5.40625 6.8125 -5.40625 Z M 6.8125 -5.40625 "/></g></g></g><g fill="#000000" fill-opacity="1"><g transform="translate(76.750835, 64.78998)"><g><path d="M 5.390625 -2.859375 C 5.378906 -2.734375 5.328125 -2.628906 5.234375 -2.546875 C 5.140625 -2.460938 5.023438 -2.421875 4.890625 -2.421875 L 1.328125 -2.421875 C 1.378906 -1.929688 1.566406 -1.535156 1.890625 -1.234375 C 2.222656 -0.941406 2.625 -0.796875 3.09375 -0.796875 C 3.414062 -0.796875 3.675781 -0.84375 3.875 -0.9375 C 4.082031 -1.03125 4.265625 -1.148438 4.421875 -1.296875 C 4.523438 -1.359375 4.625 -1.390625 4.71875 -1.390625 C 4.832031 -1.390625 4.925781 -1.347656 5 -1.265625 C 5.082031 -1.179688 5.125 -1.085938 5.125 -0.984375 C 5.125 -0.835938 5.054688 -0.707031 4.921875 -0.59375 C 4.722656 -0.394531 4.460938 -0.226562 4.140625 -0.09375 C 3.816406 0.03125 3.484375 0.09375 3.140625 0.09375 C 2.597656 0.09375 2.117188 -0.0195312 1.703125 -0.25 C 1.285156 -0.476562 0.960938 -0.796875 0.734375 -1.203125 C 0.503906 -1.617188 0.390625 -2.085938 0.390625 -2.609375 C 0.390625 -3.171875 0.503906 -3.664062 0.734375 -4.09375 C 0.972656 -4.53125 1.28125 -4.863281 1.65625 -5.09375 C 2.039062 -5.320312 2.457031 -5.4375 2.90625 -5.4375 C 3.332031 -5.4375 3.734375 -5.320312 4.109375 -5.09375 C 4.492188 -4.875 4.800781 -4.566406 5.03125 -4.171875 C 5.257812 -3.785156 5.378906 -3.347656 5.390625 -2.859375 Z M 2.90625 -4.546875 C 2.519531 -4.546875 2.1875 -4.4375 1.90625 -4.21875 C 1.632812 -4.007812 1.457031 -3.679688 1.375 -3.234375 L 4.359375 -3.234375 L 4.359375 -3.3125 C 4.328125 -3.675781 4.164062 -3.972656 3.875 -4.203125 C 3.59375 -4.429688 3.269531 -4.546875 2.90625 -4.546875 Z M 2.90625 -4.546875 "/></g></g></g><g fill="#000000" fill-opacity="1"><g transform="translate(89.147122, 64.78998)"><g><path d="M 2.15625 -4.375 L 2.15625 -1.34375 C 2.15625 -1.007812 2.304688 -0.84375 2.609375 -0.84375 C 2.660156 -0.84375 2.726562 -0.851562 2.8125 -0.875 C 2.894531 -0.894531 2.957031 -0.90625 3 -0.90625 C 3.09375 -0.90625 3.164062 -0.867188 3.21875 -0.796875 C 3.28125 -0.722656 3.3125 -0.628906 3.3125 -0.515625 C 3.3125 -0.367188 3.226562 -0.242188 3.0625 -0.140625 C 2.90625 -0.046875 2.726562 0 2.53125 0 C 2.300781 0 2.09375 -0.0195312 1.90625 -0.0625 C 1.71875 -0.113281 1.550781 -0.234375 1.40625 -0.421875 C 1.269531 -0.617188 1.203125 -0.914062 1.203125 -1.3125 L 1.203125 -4.375 L 0.609375 -4.375 C 0.484375 -4.375 0.375 -4.414062 0.28125 -4.5 C 0.195312 -4.582031 0.15625 -4.6875 0.15625 -4.8125 C 0.15625 -4.945312 0.195312 -5.050781 0.28125 -5.125 C 0.375 -5.207031 0.484375 -5.25 0.609375 -5.25 L 1.203125 -5.25 L 1.203125 -6.109375 C 1.203125 -6.242188 1.242188 -6.359375 1.328125 -6.453125 C 1.421875 -6.546875 1.539062 -6.59375 1.6875 -6.59375 C 1.820312 -6.59375 1.929688 -6.546875 2.015625 -6.453125 C 2.109375 -6.359375 2.15625 -6.242188 2.15625 -6.109375 L 2.15625 -5.25 L 3 -5.25 C 3.125 -5.25 3.226562 -5.207031 3.3125 -5.125 C 3.40625 -5.039062 3.453125 -4.9375 3.453125 -4.8125 C 3.453125 -4.675781 3.40625 -4.566406 3.3125 -4.484375 C 3.226562 -4.410156 3.125 -4.375 3 -4.375 Z M 2.15625 -4.375 "/></g></g></g><g fill="#000000" fill-opacity="1"><g transform="translate(99.616641, 64.78998)"><g><path d="M 1.625 -0.484375 C 1.625 -0.347656 1.578125 -0.234375 1.484375 -0.140625 C 1.398438 -0.046875 1.285156 0 1.140625 0 C 1.003906 0 0.890625 -0.046875 0.796875 -0.140625 C 0.710938 -0.234375 0.671875 -0.347656 0.671875 -0.484375 L 0.671875 -4.875 C 0.671875 -5.007812 0.710938 -5.125 0.796875 -5.21875 C 0.890625 -5.3125 1.003906 -5.359375 1.140625 -5.359375 C 1.285156 -5.359375 1.398438 -5.3125 1.484375 -5.21875 C 1.578125 -5.125 1.625 -5.007812 1.625 -4.875 Z M 1.15625 -6.03125 C 0.957031 -6.03125 0.8125 -6.066406 0.71875 -6.140625 C 0.632812 -6.210938 0.59375 -6.328125 0.59375 -6.484375 L 0.59375 -6.640625 C 0.59375 -6.804688 0.640625 -6.921875 0.734375 -6.984375 C 0.828125 -7.054688 0.96875 -7.09375 1.15625 -7.09375 C 1.34375 -7.09375 1.476562 -7.054688 1.5625 -6.984375 C 1.65625 -6.910156 1.703125 -6.796875 1.703125 -6.640625 L 1.703125 -6.484375 C 1.703125 -6.316406 1.65625 -6.195312 1.5625 -6.125 C 1.476562 -6.0625 1.34375 -6.03125 1.15625 -6.03125 Z M 1.15625 -6.03125 "/></g></g></g><g fill="#000000" fill-opacity="1"><g transform="translate(108.534589, 64.78998)"><g><path d="M 3.03125 -5.4375 C 3.5625 -5.4375 4.003906 -5.347656 4.359375 -5.171875 C 4.710938 -5.003906 4.890625 -4.789062 4.890625 -4.53125 C 4.890625 -4.414062 4.851562 -4.3125 4.78125 -4.21875 C 4.707031 -4.132812 4.613281 -4.09375 4.5 -4.09375 C 4.414062 -4.09375 4.347656 -4.101562 4.296875 -4.125 C 4.242188 -4.15625 4.175781 -4.203125 4.09375 -4.265625 C 4.050781 -4.296875 3.984375 -4.34375 3.890625 -4.40625 C 3.804688 -4.445312 3.691406 -4.476562 3.546875 -4.5 C 3.398438 -4.53125 3.265625 -4.546875 3.140625 -4.546875 C 2.785156 -4.546875 2.472656 -4.460938 2.203125 -4.296875 C 1.941406 -4.140625 1.734375 -3.914062 1.578125 -3.625 C 1.429688 -3.332031 1.359375 -3.015625 1.359375 -2.671875 C 1.359375 -2.304688 1.429688 -1.984375 1.578125 -1.703125 C 1.722656 -1.421875 1.925781 -1.195312 2.1875 -1.03125 C 2.445312 -0.875 2.75 -0.796875 3.09375 -0.796875 C 3.445312 -0.796875 3.726562 -0.847656 3.9375 -0.953125 C 3.988281 -0.984375 4.054688 -1.023438 4.140625 -1.078125 C 4.203125 -1.140625 4.257812 -1.179688 4.3125 -1.203125 C 4.363281 -1.234375 4.425781 -1.25 4.5 -1.25 C 4.632812 -1.25 4.738281 -1.207031 4.8125 -1.125 C 4.894531 -1.039062 4.9375 -0.929688 4.9375 -0.796875 C 4.9375 -0.648438 4.847656 -0.503906 4.671875 -0.359375 C 4.492188 -0.222656 4.253906 -0.113281 3.953125 -0.03125 C 3.648438 0.0507812 3.328125 0.09375 2.984375 0.09375 C 2.460938 0.09375 2.003906 -0.0234375 1.609375 -0.265625 C 1.222656 -0.503906 0.921875 -0.832031 0.703125 -1.25 C 0.492188 -1.675781 0.390625 -2.148438 0.390625 -2.671875 C 0.390625 -3.191406 0.5 -3.660156 0.71875 -4.078125 C 0.945312 -4.503906 1.257812 -4.835938 1.65625 -5.078125 C 2.0625 -5.316406 2.519531 -5.4375 3.03125 -5.4375 Z M 3.03125 -5.4375 "/></g></g></g><g fill="#000000" fill-opacity="1"><g transform="translate(120.362987, 64.78998)"><g><path d="M 0.421875 -0.828125 C 0.359375 -0.921875 0.328125 -1.015625 0.328125 -1.109375 C 0.328125 -1.242188 0.394531 -1.359375 0.53125 -1.453125 C 0.601562 -1.492188 0.679688 -1.515625 0.765625 -1.515625 C 0.890625 -1.515625 1.003906 -1.46875 1.109375 -1.375 C 1.304688 -1.144531 1.519531 -0.96875 1.75 -0.84375 C 1.988281 -0.726562 2.269531 -0.671875 2.59375 -0.671875 C 2.851562 -0.679688 3.078125 -0.742188 3.265625 -0.859375 C 3.460938 -0.972656 3.5625 -1.15625 3.5625 -1.40625 C 3.5625 -1.632812 3.460938 -1.804688 3.265625 -1.921875 C 3.066406 -2.046875 2.773438 -2.160156 2.390625 -2.265625 C 2.015625 -2.359375 1.703125 -2.460938 1.453125 -2.578125 C 1.203125 -2.691406 0.988281 -2.851562 0.8125 -3.0625 C 0.644531 -3.28125 0.5625 -3.5625 0.5625 -3.90625 C 0.5625 -4.207031 0.644531 -4.472656 0.8125 -4.703125 C 0.988281 -4.929688 1.21875 -5.109375 1.5 -5.234375 C 1.789062 -5.367188 2.101562 -5.4375 2.4375 -5.4375 C 2.769531 -5.4375 3.09375 -5.375 3.40625 -5.25 C 3.726562 -5.132812 3.992188 -4.945312 4.203125 -4.6875 C 4.273438 -4.59375 4.3125 -4.5 4.3125 -4.40625 C 4.3125 -4.289062 4.257812 -4.1875 4.15625 -4.09375 C 4.09375 -4.03125 4.007812 -4 3.90625 -4 C 3.78125 -4 3.679688 -4.035156 3.609375 -4.109375 C 3.460938 -4.273438 3.285156 -4.398438 3.078125 -4.484375 C 2.878906 -4.578125 2.65625 -4.625 2.40625 -4.625 C 2.144531 -4.625 1.925781 -4.570312 1.75 -4.46875 C 1.570312 -4.363281 1.484375 -4.1875 1.484375 -3.9375 C 1.484375 -3.695312 1.582031 -3.519531 1.78125 -3.40625 C 1.988281 -3.289062 2.296875 -3.179688 2.703125 -3.078125 C 3.066406 -2.984375 3.363281 -2.878906 3.59375 -2.765625 C 3.832031 -2.660156 4.03125 -2.5 4.1875 -2.28125 C 4.351562 -2.070312 4.4375 -1.796875 4.4375 -1.453125 C 4.4375 -1.128906 4.34375 -0.851562 4.15625 -0.625 C 3.976562 -0.394531 3.742188 -0.21875 3.453125 -0.09375 C 3.160156 0.03125 2.847656 0.09375 2.515625 0.09375 C 2.085938 0.09375 1.691406 0.0195312 1.328125 -0.125 C 0.972656 -0.269531 0.671875 -0.503906 0.421875 -0.828125 Z M 0.421875 -0.828125 "/></g></g></g></svg>